<svg data-v-423bf9ae="" xmlns="http://www.w3.org/2000/svg" viewBox="0 0 464 107" class="iconLeft"><!----><!----><!----><g data-v-423bf9ae="" id="75b94420-d631-4df3-831f-6c543ce65390" fill="#361C00" transform="matrix(5.830904006958008,0,0,5.830904006958008,94.90943908691406,-4.019885540008545)"><path d="M6.79 12.43L6.79 13.69L2.66 13.69L2.66 6.27L6.79 6.27L6.79 7.53L8.19 7.53L8.19 5.95L6.57 5.01L2.88 5.01L1.26 5.95L1.26 14.01L2.88 14.95L6.57 14.95L8.19 14.01L8.19 12.43ZM16.38 14.01L16.38 8.75L14.76 7.81L12.05 7.81L10.43 8.75L10.43 14.01L12.05 14.95L14.76 14.95ZM11.79 9.03L15.02 9.03L15.02 13.73L11.79 13.73ZM19.98 7.88L18.62 7.88L18.62 14.88L19.98 14.88ZM18.55 6.16L20.05 6.16L20.05 4.66L18.55 4.66ZM28.17 8.75L26.54 7.81L24.57 7.81L23.58 8.39L23.24 7.81L22.22 7.81L22.22 14.88L23.58 14.88L23.58 9.03L26.81 9.03L26.81 14.88L28.17 14.88ZM31.77 14.88L31.77 9.03L35.14 9.03L35.14 14.88L36.50 14.88L36.50 8.75L34.87 7.81L32.76 7.81L31.77 8.39L31.77 4.66L30.41 4.66L30.41 14.88ZM39.82 12.01L42.63 12.01L42.63 13.73L39.82 13.73ZM40.08 14.95L41.64 14.95L42.63 14.38L43.62 14.95L43.99 14.95L43.99 8.82L42.36 7.88L39.16 7.88L39.16 9.10L42.63 9.10L42.63 10.79L40.08 10.79L38.46 11.73L38.46 14.01ZM55.65 8.75L54.03 7.81L52.61 7.81L51.30 8.57L49.99 7.81L48.58 7.81L47.59 8.39L47.25 7.81L46.23 7.81L46.23 14.88L47.59 14.88L47.59 9.03L50.26 9.03L50.26 14.88L51.62 14.88L51.62 9.03L54.29 9.03L54.29 14.88L55.65 14.88ZM58.97 12.01L61.78 12.01L61.78 13.73L58.97 13.73ZM59.23 14.95L60.79 14.95L61.78 14.38L62.78 14.95L63.14 14.95L63.14 8.82L61.52 7.88L58.31 7.88L58.31 9.10L61.78 9.10L61.78 10.79L59.23 10.79L57.61 11.73L57.61 14.01Z"></path></g><defs data-v-423bf9ae=""><linearGradient data-v-423bf9ae="" gradientTransform="rotate(25)" id="d4fb71e5-e71a-4fcd-b5ee-4250f5e98fd5" x1="0%" y1="0%" x2="100%" y2="0%"><stop data-v-423bf9ae="" offset="0%" style="stop-color: rgb(235, 76, 0); stop-opacity: 1;"></stop><stop data-v-423bf9ae="" offset="100%" style="stop-color: rgb(242, 169, 0); stop-opacity: 1;"></stop></linearGradient></defs><g data-v-423bf9ae="" id="d0bbcf0f-aa34-4f79-a602-8124b111baea" transform="matrix(1.0868111848831177,0,0,1.0868111848831177,-13.255263328552246,-0.23894432187080383)" stroke="none" fill="url(#d4fb71e5-e71a-4fcd-b5ee-4250f5e98fd5)"><g clip-rule="evenodd"><path d="M12.983 10.59l17.018 88.223-5.872-59.049 29.021-1.892-.054-9.883L64.549 1 53.622 18.977z"></path><path d="M59.389 54.548l5.16-53.541-8.74 39.716-19.612 1.045 1.57 20.462-7.766 36.583 12.057-39.899z"></path><path d="M62.8 67.182l.549-10.453-15.979 3.755-.032 11.797-17.337 26.532 21.68-27.616zM65.711 62.394l14.841-4.731 1.509-12.532-15.899 2.095zM72.07 44.502l10.988-1.417 1.581-10.278-8.079-.373L64.549 1l8.43 30.967z"></path><path d="M87.413 31.294l1.256-9.506-9.544-2.694L64.549 1l14.483 22.437-.422 7z"></path></g></g><!----></svg>