<svg width="168" height="150" viewBox="0 0 168 150" fill="none" xmlns="http://www.w3.org/2000/svg">
<g id="BetHog_Ident_Full_Colour">
<path id="Union" fill-rule="evenodd" clip-rule="evenodd" d="M46.0813 7.41447C45.5928 7.25722 45.1032 7.09961 44.6124 6.94195C44.6124 8.46206 44.5746 9.98204 44.5367 11.502C44.4851 13.5744 44.4335 15.6468 44.4778 17.7195C39.2588 20.1427 34.3561 23.1013 29.6562 26.4109C30.3789 51.644 39.1523 76.8411 54.7698 96.554L35.5285 99.6015C35.0661 99.6748 34.6204 99.7953 34.1965 99.9578C33.5938 99.4407 32.9304 98.9814 32.2099 98.5868C29.0599 96.8613 25.4119 96.6772 21.9909 97.219L7.14449 99.5704C4.12132 100.049 1.85639 102.595 1.73314 105.654L0.501758 136.21C0.495902 136.355 0.494894 136.5 0.498612 136.643L0.320439 141.06C0.157044 145.11 3.74319 148.295 7.74697 147.661L22.5978 145.311C26.4568 144.701 30.048 143.326 32.92 140.998C34.0025 141.449 35.2255 141.619 36.487 141.42L71.2891 135.913L71.1909 138.345C71.1757 138.721 71.1924 139.092 71.239 139.454L71.0878 143.195C70.9209 147.32 74.5732 150.563 78.6509 149.918L105.739 145.632C108.819 145.145 111.129 142.553 111.255 139.437L111.277 138.874C114.78 140.915 118.943 141.483 123.144 140.819C128.759 139.93 133.474 137.234 136.633 133.171C140.215 136.102 145.064 137.35 150.159 136.544C155.483 135.702 160.108 133.144 163.302 129.093C166.732 124.743 167.839 119.462 167.668 114.494L167.666 114.432L167.664 114.399C167.643 113.999 167.609 113.598 167.562 113.197C167.677 112.008 167.708 110.82 167.668 109.647L167.666 109.584L167.663 109.551C167.411 104.783 165.33 99.718 160.531 96.8427C156.428 94.3846 151.563 94.0654 147.236 95.0122C142.912 95.9586 138.732 98.2478 135.866 101.561C135.594 101.876 135.333 102.198 135.084 102.527C131.187 99.3843 125.981 98.4271 121.27 99.1732C117.968 99.6962 114.956 100.847 112.386 102.551C111.961 100.676 110.729 99.1193 109.095 98.2408C125.749 78.2845 135.445 52.2594 135.445 26.397C130.166 22.6528 124.583 19.4025 118.642 16.8205C118.592 15.9903 118.535 15.1724 118.479 14.3747C118.343 12.4157 118.215 10.5782 118.215 8.97652C117.964 9.21199 117.715 9.44858 117.467 9.68447C115.645 11.4192 113.861 13.1163 111.454 14.0566C106.958 12.5452 102.364 11.3966 97.7196 10.6112C92.8126 1.01914 81.428 -1.01291 71.628 0.408128L74.6661 2.0222C69.0698 2.18611 64.1017 4.86609 59.3717 7.61843C59.8985 7.71207 60.4299 7.7964 60.9624 7.88087C62.0956 8.06068 63.2331 8.24117 64.339 8.51368C62.1146 9.15745 60.0822 10.1277 58.343 11.1711C54.3152 10.065 50.2379 8.75251 46.0813 7.41447Z" fill="white"/>
<g id="BetHog_Ident_Shield_Colour">
<path id="Union_2" fill-rule="evenodd" clip-rule="evenodd" d="M82.5508 119.041C113.086 101.008 132.752 62.8914 133.773 27.2547C103.291 5.63493 61.9659 5.5248 31.3286 27.2547C32.3494 62.8914 52.0157 101.008 82.5508 119.041ZM38.0693 35.224C63.7191 17.5743 101.383 17.5743 127.032 35.224C125.465 74.4734 97.3548 102.171 82.5508 111.321C67.7469 102.171 39.637 74.4734 38.0693 35.224Z" fill="black"/>
<path id="Union_3" fill-rule="evenodd" clip-rule="evenodd" d="M82.5508 113.615C113.086 95.5806 132.752 62.8944 133.773 27.2556C103.291 5.63461 61.9659 5.52448 31.3286 27.2556C32.3494 62.8944 52.0157 95.5805 82.5508 113.615ZM38.0693 30.6199C63.7191 12.9692 101.383 12.9692 127.032 30.6199C125.465 69.8715 97.3548 96.7439 82.5508 105.894C67.7469 96.7439 39.637 69.8715 38.0693 30.6199Z" fill="#18181B"/>
<path id="Union_4" fill-rule="evenodd" clip-rule="evenodd" d="M38.0698 30.62C63.7196 12.9693 101.383 12.9693 127.033 30.62C125.465 69.8716 97.3553 96.744 82.5513 105.894C67.7474 96.744 39.6375 69.8716 38.0698 30.62Z" fill="url(#paint0_linear_1041_119264)"/>
<g id="Group 470">
<path id="Union_5" fill-rule="evenodd" clip-rule="evenodd" d="M70.1815 9.45162C69.0698 8.70131 66.3285 7.10865 64.2573 6.74043C67.1237 5.07243 74.3038 2.31143 80.0923 4.6115C79.534 3.76872 78.2425 1.99027 77.5431 1.6187C90.2168 0.521503 99.8336 11.2462 97.9953 23.4863C98.1042 23.624 98.2134 23.7891 98.2584 23.8611C101.626 15.7864 110.889 18.1674 116.447 12.9531C116.447 20.628 118.351 33.5603 108.259 36.8539C107.969 36.9533 107.373 38.1845 107.111 38.7877C108.165 40.0822 107.869 41.8567 107.866 42.2581C110.135 40.3454 112.61 38.3257 115.804 39.1243C117.784 39.6195 119.34 41.0184 120.482 42.5294C122.748 45.5266 124.1 49.907 124.103 52.9487V52.9489C124.106 55.1314 123.216 57.4087 121.786 59.1124C121.128 65.0757 116.475 66.7999 114.272 67.0393C112.459 71.3421 109.407 73.0825 108.108 73.4149C108.64 73.0523 109.075 71.6926 109.226 71.0581C108.864 71.8557 106.457 73.6062 105.298 74.3818C107.45 77.6209 107.705 81.7947 107.564 83.4768C106.694 81.7605 104.865 80.3242 104.06 79.8206C106.138 86.0089 104.241 90.3962 103.032 91.8164C103.371 88.1179 101.864 85.743 101.068 85.0178C102.18 95.3395 96.0326 102.11 92.8199 104.205C86.3097 92.075 67.5845 92.7544 61.2764 80.7876C61.5664 85.8638 64.2373 90.2552 65.5365 91.8164C48.3991 83.5009 46.8542 66.9185 48.2239 59.6667C46.6527 61.1412 45.1521 64.8336 44.5981 66.4955C44.2598 57.2131 49.0296 50.0379 51.4568 47.6105C50.7074 47.6589 48.7274 48.7386 47.8311 49.2724C50.0325 44.4954 54.3842 40.7743 57.0991 38.9523C49.8265 37.17 46.1692 29.6819 46.1692 20.5068C46.1491 16.7802 45.8374 8.87998 46.0786 8.99454C49.1378 10.4478 54.1331 11.8149 59.0133 13.1505L59.0134 13.1505L59.0135 13.1505C59.917 13.3978 60.8166 13.644 61.6993 13.8895C64.396 14.5419 68.4006 16.494 71.2227 19.227C67.9004 15.6524 64.3638 13.7297 59.0405 12.7332C62.0934 10.8758 66.0102 9.31265 70.1815 9.45162Z" fill="url(#paint1_linear_1041_119264)"/>
<path id="Subtract" fill-rule="evenodd" clip-rule="evenodd" d="M122.097 52.8713C122.101 56.508 118.774 60.8579 114.843 59.5905C113.678 59.2145 112.376 59.3038 111.139 59.8448C107.712 61.3433 103.381 60.0324 102.235 56.1978C100.638 50.8535 106.756 45.7925 110.457 42.7316C110.625 42.5924 110.788 42.4574 110.946 42.3267C117.275 37.0666 122.092 47.6745 122.097 52.8713Z" fill="#FF7900"/>
<g id="Union_6">
<path fill-rule="evenodd" clip-rule="evenodd" d="M86.5958 41.2629C85.7982 39.3775 84.0881 38.7248 83.3327 38.6341C83.5241 39.1881 83.8222 40.4411 83.4838 41.0212C84.078 40.9406 85.5323 40.8762 86.5958 41.2629Z" fill="#FFFAEC"/>
<path fill-rule="evenodd" clip-rule="evenodd" d="M104.724 42.5027C105.137 42.5329 105.993 42.545 106.114 42.3516C106.265 42.1099 106.296 38.212 103.727 38.635C104.724 39.0882 105.208 40.5084 104.724 42.5027ZM90.3282 58.1381C86.4134 55.8287 85.9422 49.3052 88.8612 46.0789C89.4195 50.1268 91.7718 53.9969 95.9516 55.0367L96.6466 58.7551C94.5345 59.1688 92.2486 59.271 90.3282 58.1381Z" fill="#FFFAEC"/>
</g>
<g id="Union_7">
<path d="M76.454 36.6158C77.956 34.5844 81.6607 32.3082 86.3666 35.7626C88.6575 37.5523 93.9667 36.1172 90.5558 31.868C91.0935 34.5119 87.9223 33.2215 86.6507 32.704C82.736 31.1114 77.4845 31.8351 76.454 36.6158Z" fill="#18181B"/>
<path fill-rule="evenodd" clip-rule="evenodd" d="M88.8014 41.8692C87.5626 33.7409 78.1661 34.8288 76.1719 38.334C76.7158 38.0418 77.9304 37.4576 78.438 37.4576C77.874 38.2734 77.024 40.3885 78.1358 42.3223C77.8941 42.4734 77.314 42.8783 76.9273 43.2892C79.707 42.5338 85.2059 41.1439 89.9496 42.8058C89.8529 42.4915 89.1438 42.0505 88.8014 41.8692ZM86.5958 41.2347C85.7981 39.3492 84.088 38.6966 83.3326 38.6059C83.524 39.1599 83.8221 40.4128 83.4837 40.993C84.0779 40.9124 85.5322 40.8479 86.5958 41.2347Z" fill="#18181B"/>
<path d="M50.0367 15.6419C50.359 18.0793 52.617 23.7216 59.0707 26.7916C57.278 26.5499 53.3603 25.6675 52.0308 24.0722C52.9776 25.5427 55.868 28.7677 59.8563 29.9038C58.4765 30.0851 55.3967 30.3389 54.1156 29.9038C55.9788 32.3614 61.4999 36.6661 68.6788 34.2247C66.165 33.1853 65.0128 30.911 64.751 29.9038C63.5908 25.166 61.0044 23.075 59.8563 22.6218C55.0946 20.8814 51.3258 17.2434 50.0367 15.6419Z" fill="#18181B"/>
<path d="M116.39 47.8345C114.651 48.9855 117.781 50.9499 116.496 52.0313C116.086 52.376 115.605 52.7804 115.879 53.2958C116.374 54.2268 117.356 55.9086 118.665 55.2352C121.572 53.7392 117.592 47.0383 116.39 47.8345Z" fill="#18181B"/>
<path d="M108.261 50.6589C106.441 53.1112 108.842 56.759 110.917 54.8098C111.77 53.7901 112.182 52.7928 110.917 51.8476C111.342 51.0107 111.75 50.1754 111.821 49.2219C112.068 45.8745 109.037 49.613 108.261 50.6589Z" fill="#18181B"/>
<path fill-rule="evenodd" clip-rule="evenodd" d="M70.1815 9.45162C69.0698 8.70131 66.3285 7.10865 64.2573 6.74043C67.1237 5.07243 74.3038 2.31143 80.0923 4.6115C79.534 3.76872 78.2425 1.99027 77.5431 1.6187C90.2168 0.521503 99.8336 11.2462 97.9953 23.4863C98.1042 23.624 98.2134 23.7891 98.2584 23.8611C101.626 15.7864 110.889 18.1674 116.447 12.9531C116.447 20.628 118.351 33.5603 108.259 36.8539C107.969 36.9533 107.373 38.1845 107.111 38.7877C108.165 40.0822 107.869 41.8567 107.866 42.2581C110.135 40.3454 112.61 38.3257 115.804 39.1243C117.784 39.6195 119.34 41.0184 120.482 42.5294C122.748 45.5266 124.1 49.907 124.103 52.9487V52.9489C124.106 55.1314 123.216 57.4087 121.786 59.1124C121.128 65.0757 116.475 66.7999 114.272 67.0393C112.459 71.3421 109.407 73.0825 108.108 73.4149C108.64 73.0523 109.075 71.6926 109.226 71.0581C108.864 71.8557 106.457 73.6062 105.298 74.3818C107.45 77.6209 107.705 81.7947 107.564 83.4768C106.694 81.7605 104.865 80.3242 104.06 79.8206C106.138 86.0089 104.241 90.3962 103.032 91.8164C103.371 88.1179 101.864 85.743 101.068 85.0178C102.18 95.3395 96.0326 102.11 92.8199 104.205C86.3097 92.075 67.5845 92.7544 61.2764 80.7876C61.5664 85.8638 64.2373 90.2552 65.5365 91.8164C48.3991 83.5009 46.8542 66.9185 48.2239 59.6667C46.6527 61.1412 45.1521 64.8336 44.5981 66.4955C44.2598 57.2131 49.0296 50.0379 51.4568 47.6105C50.7074 47.6589 48.7274 48.7386 47.8311 49.2724C50.0325 44.4954 54.3842 40.7743 57.0991 38.9523C49.8265 37.17 46.1692 29.6819 46.1692 20.5068C46.1491 16.7802 45.8374 8.87998 46.0786 8.99454C49.1378 10.4478 54.1331 11.8149 59.0133 13.1505L59.0134 13.1505L59.0135 13.1505C59.917 13.3978 60.8166 13.644 61.6993 13.8895C63.9827 14.4419 67.2038 15.9262 69.8508 18.0273C69.9373 17.9379 69.8508 18.0273 69.9373 17.9379C66.9689 15.1769 63.6846 13.6026 59.0405 12.7332C62.0934 10.8758 66.0102 9.31265 70.1815 9.45162ZM118.339 61.5737C117.085 62.0163 115.665 62.1051 114.159 61.6203C113.521 61.4148 112.738 61.4398 111.91 61.8014L111.91 61.8014C108.001 63.5074 103.329 62.3663 99.4669 61.1772C94.5722 60.0895 91.2789 62.8391 85.9612 56.796C86.0821 57.7125 86.777 59.9021 88.5899 61.3283C87.1799 61.1269 84.1726 59.7692 83.4233 55.9499C82.9398 56.2521 81.9488 57.2613 81.8521 58.8809C80.281 57.6118 80.6134 52.3542 85.085 52.6262C84.793 49.9571 85.4839 44.4135 90.584 43.5916C90.4934 45.5254 91.0251 49.8463 93.8773 51.6592C94.0183 50.2995 94.8925 47.3263 97.2613 46.311C96.375 47.288 94.7233 49.8523 95.2068 52.2938C95.2068 52.6262 95.7808 52.8981 95.9923 52.6262C96.2743 51.1355 97.6843 47.852 101.068 46.6434C99.1145 48.0736 96.2038 52.2938 98.2282 58.1556C98.5134 58.1289 99.2736 57.8418 100.232 56.9381C98.6807 51.9174 102.313 47.3384 105.765 44.1137C105.181 44.124 103.708 43.7388 103.002 43.5316C101.528 41.356 98.3591 40.792 96.9592 40.7819C98.7119 39.7432 98.0703 35.6224 99.7388 35.1316V39.392C101.407 39.2953 102.106 37.9618 102.247 37.3071C102.899 35.4216 104.936 35.615 105.872 35.9474C104.18 32.6237 101.098 33.4395 100.101 34.6179C100.892 31.0766 98.1028 26.5498 95.9128 23.8152C95.808 25.0346 95.4541 27.1658 94.66 28.1395C93.6772 27.296 91.1862 25.5557 89.0847 25.3422C89.5267 25.7401 90.4666 26.7553 90.6902 27.633C90.0332 26.8395 87.9356 25.9442 85.2999 24.9569C85.6231 25.3328 85.8421 25.6853 85.9612 25.9456C81.6587 23.9393 76.9776 24.4852 75.1748 25.0089C78.4621 24.9847 81.1773 26.147 82.124 26.7312C79.1111 26.0921 75.9329 26.4086 74.5027 26.6833C74.3547 27.8251 73.8996 29.0047 73.0598 30.206C71.4887 13.8895 54.4177 15.9441 48.8281 12.8319C46.834 39.1499 59.7052 36.8233 63.7539 36.8233C64.7207 37.5001 67.158 37.7902 68.2558 37.8506C59.2315 41.1375 49.7774 48.092 50.1576 58.73C50.359 57.9444 51.209 56.0951 52.9977 54.9832C51.5071 57.6724 49.2632 65.1539 52.2121 73.566C52.3431 67.8753 54.2304 55.509 60.7325 51.5688C58.5873 55.2451 55.306 64.6402 59.3427 72.8106C59.0707 70.917 58.8411 66.6344 60.098 64.6523C60.2289 68.6508 61.3972 77.5303 65.0229 81.0595C64.328 79.8005 63.0711 76.3398 63.6028 72.5688C65.7279 77.5041 72.0749 88.1119 80.4623 91.0609C79.143 89.6912 76.3774 86.45 75.8698 84.4437C77.0683 85.3501 79.7674 87.1752 80.976 87.2235C80.8853 87.0322 80.5288 86.4802 79.8278 85.8034C84.0679 86.9113 92.7776 91.3631 93.6961 100.307C96.8384 96.661 100.651 87.5801 90.7653 80.425C91.1984 80.8581 92.137 81.8632 92.4271 82.4192C91.702 82.107 90.0462 81.5006 89.2244 81.5732C90.2215 82.4696 92.0343 84.7458 92.6386 87.2235C87.7741 82.4192 78.9214 79.73 73.8756 77.5545C74.1657 78.1588 77.0179 80.7271 78.4077 81.9358C61.8202 76.7991 63.6331 58.1559 67.8328 52.8983C63.905 64.4106 71.1564 71.0278 77.1085 72.5688C74.909 73.1006 72.4052 72.6897 71.4283 72.4178C77.5436 75.947 85.498 73.5458 88.7108 71.9041C88.2273 72.8468 87.4821 73.4048 87.1698 73.566C88.2817 73.4934 90.151 72.7098 90.9466 72.3271C88.1427 75.8322 83.3125 77.1717 81.2479 77.4034C88.6926 79.3855 95.5089 76.5875 98.0469 74.8955C97.775 75.4998 96.365 76.4063 95.5996 76.7991C98.6935 76.364 101.723 74.3012 102.851 73.3242C102.827 73.5901 102.619 73.8983 102.519 74.0192C104.936 73.3424 108.219 69.1444 109.558 67.13C107.957 66.5861 102.247 67.7041 99.7389 65.166C102.431 66.0854 106.151 65.6149 109.695 65.1666C112.691 64.792 117.532 65.4338 118.339 61.5737ZM95.5299 23.2288C96.3444 10.3933 87.7175 5.1469 83.3023 4.12816C84.3145 5.50818 86.4421 8.66136 86.8556 10.2339C86.9844 9.64135 87.1884 8.30838 86.975 7.71724C89.6175 9.57947 95.0279 15.2889 95.5299 23.2288ZM74.9633 7.21373C75.7034 8.12849 77.3057 10.1808 77.7943 11.0721L77.7051 9.56396C80.9884 11.0044 88.0978 15.6935 90.2687 22.9265C90.2217 12.299 80.0455 8.02318 74.9633 7.21373ZM69.7022 13.095C74.933 15.1886 78.1357 17.6664 80.9678 22.6119C79.1025 13.0949 71.388 13.3957 69.7022 13.095ZM104.724 42.4744C105.137 42.5047 105.993 42.5167 106.114 42.3234C106.265 42.0816 106.295 38.1837 103.727 38.6067C104.724 39.06 105.208 40.4802 104.724 42.4744ZM99.9202 26.0667C100.645 27.5977 102.162 30.7562 102.428 31.143C102.69 29.884 103.637 26.248 105.6 24.979C107.353 23.6797 112.429 21.9876 113.335 19.2984C113.255 21.0408 111.891 25.0938 107.081 27.366C108.128 27.1847 110.598 26.5623 112.096 25.5229C111.476 26.4495 109.435 28.5384 106.235 29.4811C107.323 29.7128 109.758 30.0613 110.797 29.602C110.515 30.2567 109.353 31.7292 106.96 32.3819C107.141 32.6739 107.582 33.2944 107.897 33.4394C107.806 33.4898 107.595 33.6388 107.474 33.8322C107.564 34.0437 107.806 34.497 108.048 34.6178C115.325 31.5786 114.015 22.9979 114.483 16.5487C110.35 20.4388 100.694 18.4265 99.9202 26.0667ZM90.3281 58.1099C86.4133 55.8004 85.9422 49.277 88.8611 46.0506C89.4194 50.0986 91.7717 53.9687 95.9516 55.0085L96.6466 58.7269C94.5344 59.1405 92.2486 59.2428 90.3281 58.1099ZM114.844 59.6224C118.774 60.8898 122.101 56.5399 122.097 52.9032C122.092 47.7064 117.276 37.0986 110.946 42.3586C107.329 45.3649 100.565 50.6424 102.235 56.2297C103.381 60.0644 107.712 61.3752 111.139 59.8767C112.376 59.3357 113.678 59.2464 114.844 59.6224Z" fill="#18181B"/>
</g>
</g>
<path id="Union_8" fill-rule="evenodd" clip-rule="evenodd" d="M65.469 91.7457C71.6569 98.1765 77.7941 102.952 82.555 105.895C84.8132 104.499 87.3811 102.691 90.1171 100.489C86.6457 96.8153 81.7769 94.6131 76.9268 92.4193C70.6557 89.5827 64.4157 86.7601 61.2678 80.7885C61.5535 85.7892 64.1498 90.1252 65.469 91.7457Z" fill="#FF7900"/>
</g>
<g id="BetHog_Ident_Name_Hor_Colour">
<path id="Union (Stroke) (Stroke)" fill-rule="evenodd" clip-rule="evenodd" d="M74.5575 99.5924C77.7755 99.0832 80.6577 101.637 80.5362 104.889L80.4345 107.611L105.132 103.703C108.357 103.193 111.242 105.757 111.11 109.016L111.069 110.039C113.834 107.6 117.385 105.969 121.436 105.328C126.328 104.554 131.682 105.757 135.291 109.389C135.763 108.642 136.289 107.931 136.871 107.259C139.523 104.197 143.432 102.043 147.509 101.152C151.589 100.26 156.082 100.583 159.819 102.819C164.13 105.399 166.062 109.981 166.295 114.435L166.296 114.455L166.297 114.494C166.46 119.237 165.4 124.17 162.225 128.196C159.265 131.95 154.961 134.348 149.945 135.142C144.65 135.98 139.726 134.428 136.413 131.07C133.522 135.505 128.78 138.491 122.93 139.416C118.667 140.091 114.542 139.402 111.219 137.173C110.795 136.889 110.392 136.584 110.008 136.26L109.884 139.334C109.785 141.796 107.96 143.845 105.524 144.23L78.4365 148.516C75.2121 149.026 72.3266 146.462 72.4584 143.203L72.8211 134.235L36.2727 140.018C34.9767 140.223 33.7377 139.937 32.7225 139.313C29.9874 141.798 26.3829 143.276 22.3835 143.909L7.53265 146.259C4.38208 146.757 1.56268 144.252 1.69111 141.068L2.92386 110.509C3.02089 108.104 4.80393 106.102 7.18388 105.725L22.0467 103.374C25.2969 102.859 28.609 103.061 31.4025 104.59C32.3084 105.085 33.1075 105.693 33.7943 106.396C34.3386 106.081 34.9472 105.86 35.5993 105.756L74.5575 99.5924Z" fill="black"/>
<path id="Union (Stroke) (Stroke)_2" fill-rule="evenodd" clip-rule="evenodd" d="M74.6582 94.7456C77.8727 94.2364 80.7517 96.7898 80.6304 100.042L80.5288 102.763L105.199 98.856C108.42 98.3458 111.302 100.91 111.171 104.168L111.129 105.191C113.891 102.753 117.438 101.122 121.485 100.481C126.371 99.7068 131.72 100.91 135.324 104.541C135.796 103.795 136.322 103.083 136.903 102.412C139.552 99.3497 143.457 97.1963 147.53 96.305C151.604 95.4132 156.093 95.7358 159.826 97.9722C164.132 100.552 166.061 105.133 166.294 109.587L166.295 109.607L166.297 109.646C166.459 114.389 165.4 119.321 162.229 123.347C159.272 127.101 154.973 129.499 149.962 130.293C144.673 131.13 139.755 129.578 136.445 126.221C133.558 130.655 128.82 133.641 122.977 134.567C118.719 135.241 114.598 134.552 111.279 132.323C110.856 132.039 110.453 131.734 110.07 131.41L109.946 134.484C109.846 136.945 108.024 138.994 105.591 139.38L78.533 143.665C75.3122 144.175 72.4299 141.611 72.5615 138.353L72.9238 129.385L36.4158 135.168C35.1212 135.373 33.8835 135.087 32.8694 134.463C30.1375 136.948 26.5369 138.426 22.5419 139.059L7.70746 141.409C4.56037 141.907 1.74409 139.402 1.87238 136.218L3.10377 105.662C3.20069 103.257 4.98176 101.255 7.35908 100.878L22.2055 98.5266C25.4521 98.0124 28.7606 98.2141 31.5509 99.7426C32.4558 100.238 33.254 100.846 33.9401 101.549C34.4838 101.233 35.0917 101.012 35.7431 100.909L74.6582 94.7456Z" fill="#18181B"/>
<g id="Union_9">
<path fill-rule="evenodd" clip-rule="evenodd" d="M6.99154 136.886C6.69719 136.932 6.43377 136.698 6.44577 136.4L7.67715 105.844C7.68622 105.619 7.85281 105.432 8.07516 105.396L22.9216 103.045C28.2451 102.202 31.6293 104.082 32.2722 108.141C32.362 108.708 32.4152 109.326 32.3879 110.001C32.2722 112.659 31.024 115.228 28.9096 117.129C31.1541 118.026 32.6433 119.804 33.0166 122.16C33.0995 122.684 33.0952 123.222 33.0909 123.759C32.8848 129.519 28.764 133.437 21.826 134.536L6.99154 136.886ZM17.433 127.134L19.9202 126.74C21.273 126.526 22.1772 125.175 21.9353 123.647C21.7832 122.687 21.1053 122.078 20.0581 122.244L17.6145 122.631L17.433 127.134ZM17.8383 115.572L20.0637 115.219C21.4164 115.005 22.2334 113.668 22.0122 112.271C21.8601 111.311 21.1891 110.746 20.1855 110.905L18.0037 111.251L17.8383 115.572Z" fill="#00A1A0"/>
<path d="M34.9494 129.977C34.933 130.387 35.2952 130.709 35.6999 130.645L52.2543 128.023L52.5356 121.202L44.1155 122.536C44.0051 122.553 43.9064 122.465 43.9108 122.354L44.0052 120.008C44.0086 119.924 44.071 119.854 44.1544 119.841L51.7007 118.645L51.9729 112.22L44.4628 113.41C44.3521 113.427 44.2531 113.339 44.2582 113.227L44.3617 110.952C44.3655 110.868 44.4278 110.798 44.5109 110.785L52.8269 109.468L53.0953 102.793L36.4592 105.428C36.1535 105.476 35.9244 105.734 35.912 106.043L34.9494 129.977Z" fill="#00A1A0"/>
<path d="M61.0602 109.168L60.3357 126.743L69.5897 125.277L70.2792 107.708L75.3172 106.91C75.5958 106.866 75.8042 106.631 75.8148 106.349L76.0566 99.8691C76.0705 99.4975 75.7416 99.2058 75.3743 99.264L56.3089 102.284C56.0303 102.328 55.8219 102.563 55.8113 102.845L55.5695 109.324C55.5556 109.696 55.8845 109.988 56.2518 109.929L61.0602 109.168Z" fill="#00A1A0"/>
<path d="M93.8708 136.6L94.3052 126.062L89.0225 126.898L88.5881 137.436L77.8171 139.142C77.4491 139.201 77.1198 138.908 77.1349 138.535L78.3597 108.219C78.371 107.938 78.5793 107.704 78.8572 107.66L89.8615 105.917L89.4453 116.005L94.728 115.168L95.1442 105.08L105.915 103.374C106.283 103.316 106.612 103.609 106.597 103.981L105.373 134.297C105.361 134.579 105.153 134.813 104.875 134.857L93.8708 136.6Z" fill="#CC5802"/>
<path fill-rule="evenodd" clip-rule="evenodd" d="M109.7 121.697C110.652 127.707 115.576 131.102 122.261 130.044C129.816 128.847 134.622 123.499 134.928 116.127C134.98 115.16 134.899 114.214 134.762 113.346C133.82 107.403 128.919 103.935 122.201 104.999C114.68 106.19 109.796 111.482 109.534 118.916C109.482 119.883 109.563 120.828 109.7 121.697ZM118.102 118.443C118.102 118.389 118.102 118.334 118.102 118.278C118.221 115.35 119.964 113.157 122.537 112.75C124.576 112.427 125.986 113.538 126.303 115.542C126.359 115.891 126.359 116.224 126.36 116.598V116.6C126.36 116.654 126.36 116.709 126.36 116.765C126.241 119.693 124.498 121.886 121.925 122.293C119.886 122.616 118.476 121.505 118.159 119.501C118.103 119.151 118.103 118.819 118.102 118.444V118.443Z" fill="#CC5802"/>
<path d="M137.011 117.508C137.915 123.217 142.898 126.775 149.246 125.77C157.212 124.508 162.154 118.324 161.724 109.839C161.722 109.804 161.691 109.777 161.656 109.783L148.756 111.826L148.585 116.188L153.163 115.463C152.372 116.957 151.018 117.925 149.214 118.211C147.075 118.549 145.555 117.387 145.217 115.25C145.159 114.883 145.129 114.477 145.16 114.027C145.286 110.926 147.05 108.662 149.724 108.238C151.234 107.999 152.325 108.278 152.997 109.421C153.019 109.458 153.06 109.478 153.102 109.471L161.494 108.142C161.526 108.137 161.548 108.106 161.542 108.073C160.52 102.452 155.778 99.6811 149.352 100.699C141.733 101.906 137.168 107.249 136.864 115.067C136.829 115.928 136.884 116.707 137.011 117.508Z" fill="#CC5802"/>
</g>
<g id="Union_10">
<path fill-rule="evenodd" clip-rule="evenodd" d="M6.99154 135.849C6.69719 135.895 6.43377 135.661 6.44577 135.363L7.67715 104.807C7.68622 104.582 7.85281 104.395 8.07516 104.36L22.9216 102.008C28.2451 101.165 31.6293 103.045 32.2722 107.104C32.362 107.671 32.4152 108.289 32.3879 108.965C32.2722 111.623 31.024 114.191 28.9096 116.092C31.1541 116.989 32.6433 118.767 33.0166 121.124C33.0995 121.647 33.0952 122.185 33.0909 122.722C32.8848 128.482 28.764 132.4 21.826 133.499L6.99154 135.849ZM17.433 126.097L19.9202 125.703C21.273 125.489 22.1772 124.138 21.9353 122.61C21.7832 121.65 21.1053 121.042 20.0581 121.207L17.6145 121.594L17.433 126.097ZM17.8383 114.535L20.0637 114.182C21.4164 113.968 22.2334 112.631 22.0122 111.234C21.8601 110.274 21.1891 109.709 20.1855 109.868L18.0037 110.214L17.8383 114.535Z" fill="url(#paint2_linear_1041_119264)"/>
<path d="M34.9494 128.94C34.933 129.35 35.2952 129.672 35.6999 129.608L52.2543 126.986L52.5356 120.165L44.1155 121.499C44.0051 121.516 43.9064 121.428 43.9108 121.317L44.0052 118.971C44.0086 118.887 44.071 118.817 44.1544 118.804L51.7007 117.608L51.9729 111.184L44.4628 112.373C44.3521 112.391 44.2531 112.302 44.2582 112.19L44.3617 109.915C44.3655 109.831 44.4278 109.761 44.5109 109.748L52.8269 108.431L53.0953 101.756L36.4592 104.391C36.1535 104.439 35.9244 104.697 35.912 105.006L34.9494 128.94Z" fill="url(#paint3_linear_1041_119264)"/>
<path d="M61.0602 108.131L60.3357 125.706L69.5897 124.24L70.2792 106.671L75.3172 105.873C75.5958 105.829 75.8042 105.594 75.8148 105.312L76.0566 98.8322C76.0705 98.4607 75.7416 98.169 75.3743 98.2271L56.3089 101.247C56.0303 101.291 55.8219 101.526 55.8113 101.808L55.5695 108.287C55.5556 108.659 55.8845 108.951 56.2518 108.892L61.0602 108.131Z" fill="url(#paint4_linear_1041_119264)"/>
<path d="M93.8708 135.563L94.3052 125.025L89.0225 125.862L88.5881 136.399L77.8171 138.105C77.4491 138.164 77.1198 137.871 77.1349 137.498L78.3597 107.182C78.371 106.901 78.5793 106.667 78.8572 106.623L89.8615 104.88L89.4453 114.968L94.728 114.131L95.1442 104.044L105.915 102.338C106.283 102.279 106.612 102.572 106.597 102.944L105.373 133.261C105.361 133.542 105.153 133.776 104.875 133.82L93.8708 135.563Z" fill="url(#paint5_linear_1041_119264)"/>
<path fill-rule="evenodd" clip-rule="evenodd" d="M109.7 120.66C110.652 126.67 115.576 130.066 122.261 129.007C129.816 127.81 134.622 122.463 134.928 115.09C134.98 114.123 134.899 113.178 134.762 112.309C133.82 106.366 128.919 102.898 122.201 103.962C114.68 105.154 109.796 110.445 109.534 117.879C109.482 118.846 109.563 119.792 109.7 120.66ZM118.102 117.406C118.102 117.352 118.102 117.297 118.102 117.241C118.221 114.313 119.964 112.12 122.537 111.713C124.576 111.39 125.986 112.501 126.303 114.505C126.359 114.855 126.359 115.187 126.36 115.562V115.563C126.36 115.617 126.36 115.672 126.36 115.728C126.241 118.656 124.498 120.849 121.925 121.256C119.886 121.579 118.476 120.468 118.159 118.464C118.103 118.115 118.103 117.782 118.102 117.408V117.406Z" fill="url(#paint6_linear_1041_119264)"/>
<path d="M137.011 116.471C137.915 122.181 142.898 125.738 149.246 124.733C157.212 123.471 162.154 117.287 161.724 108.802C161.722 108.767 161.691 108.741 161.656 108.746L148.756 110.789L148.585 115.151L153.163 114.426C152.372 115.921 151.018 116.888 149.214 117.174C147.075 117.513 145.555 116.35 145.217 114.213C145.159 113.846 145.129 113.44 145.16 112.99C145.286 109.89 147.05 107.625 149.724 107.202C151.234 106.962 152.325 107.241 152.997 108.384C153.019 108.421 153.06 108.441 153.102 108.435L161.494 107.105C161.526 107.1 161.548 107.069 161.542 107.036C160.52 101.415 155.778 98.6443 149.352 99.6621C141.733 100.869 137.168 106.212 136.864 114.03C136.829 114.891 136.884 115.67 137.011 116.471Z" fill="url(#paint7_linear_1041_119264)"/>
</g>
<path id="Union (Stroke)" fill-rule="evenodd" clip-rule="evenodd" d="M95.0957 124.137C95.3619 124.374 95.5077 124.718 95.493 125.074L95.1184 134.161L104.205 132.722L105.38 103.626L96.2919 105.065L95.9158 114.18C95.8925 114.746 95.4733 115.217 94.914 115.305L89.6312 116.142C89.2792 116.198 88.9208 116.093 88.6547 115.856C88.3885 115.619 88.2427 115.275 88.2574 114.919L88.6138 106.282L79.5277 107.721L78.3522 136.817L87.4403 135.378L87.8346 125.813C87.858 125.247 88.2772 124.776 88.8365 124.687L94.1192 123.851C94.4712 123.795 94.8296 123.9 95.0957 124.137ZM88.5881 136.399L77.817 138.105C77.4491 138.164 77.1198 137.871 77.1348 137.499L78.3597 107.182C78.371 106.901 78.5792 106.667 78.8572 106.623L89.8615 104.88L89.4452 114.968L94.728 114.131L95.1442 104.044L105.915 102.338C106.283 102.279 106.612 102.572 106.597 102.944L105.373 133.261C105.361 133.542 105.153 133.776 104.875 133.82L93.8708 135.563L94.3052 125.025L89.0225 125.862L88.5881 136.399ZM77.6311 136.931C77.6314 136.931 77.6317 136.931 77.632 136.931L77.6311 136.931ZM104.689 132.646L104.688 132.646C104.688 132.646 104.689 132.646 104.689 132.646ZM133.74 115.04C133.74 115.035 133.741 115.03 133.741 115.025C133.788 114.164 133.716 113.306 133.587 112.495C133.163 109.815 131.864 107.767 129.982 106.493C128.092 105.214 125.504 104.643 122.387 105.137C115.395 106.244 110.963 111.088 110.722 117.921C110.722 117.929 110.722 117.936 110.721 117.944C110.674 118.805 110.746 119.663 110.875 120.474C111.304 123.188 112.611 125.233 114.494 126.497C116.385 127.767 118.971 128.324 122.075 127.833C129.089 126.722 133.459 121.829 133.74 115.04ZM116.913 117.246C116.913 117.229 116.913 117.211 116.914 117.193C117.051 113.809 119.116 111.051 122.351 110.539C123.627 110.336 124.831 110.57 125.782 111.287C126.726 112 127.282 113.083 127.478 114.319C127.548 114.761 127.548 115.174 127.548 115.527L127.548 115.56V115.561C127.549 115.616 127.549 115.669 127.549 115.723C127.549 115.741 127.549 115.758 127.548 115.776C127.411 119.16 125.346 121.918 122.111 122.431C120.834 122.633 119.631 122.399 118.68 121.682C117.736 120.97 117.18 119.886 116.984 118.65C116.914 118.208 116.914 117.795 116.914 117.442L116.914 117.409V117.408C116.913 117.354 116.913 117.3 116.913 117.246ZM118.102 117.407V117.408C118.103 117.782 118.103 118.115 118.159 118.464C118.476 120.468 119.886 121.579 121.925 121.256C124.498 120.849 126.241 118.656 126.36 115.728C126.36 115.703 126.36 115.677 126.36 115.653C126.36 115.623 126.36 115.593 126.36 115.564V115.562C126.359 115.187 126.359 114.855 126.303 114.505C125.986 112.501 124.576 111.39 122.537 111.713C119.964 112.12 118.221 114.313 118.102 117.241C118.102 117.297 118.102 117.352 118.102 117.407ZM136.864 114.03C136.829 114.891 136.884 115.67 137.011 116.471C137.915 122.181 142.898 125.738 149.246 124.733C156.853 123.528 161.702 117.835 161.75 109.935C161.75 109.934 161.75 109.932 161.75 109.931C161.751 109.721 161.749 109.51 161.743 109.297C161.743 109.297 161.743 109.297 161.743 109.296C161.739 109.132 161.732 108.968 161.724 108.802C161.722 108.767 161.691 108.741 161.656 108.746L161.107 108.833L161.105 108.833L148.756 110.789L148.585 115.151L153.163 114.426C152.886 114.948 152.541 115.406 152.132 115.793C151.371 116.514 150.388 116.988 149.214 117.174C147.075 117.513 145.555 116.35 145.217 114.213C145.159 113.846 145.128 113.44 145.16 112.99C145.285 109.89 147.05 107.625 149.724 107.202C151.234 106.962 152.325 107.241 152.997 108.384C153.019 108.421 153.06 108.441 153.102 108.435L161.494 107.105C161.526 107.1 161.548 107.069 161.542 107.036C161.486 106.726 161.418 106.425 161.34 106.132C161.339 106.132 161.339 106.132 161.339 106.131C161.322 106.066 161.303 106 161.285 105.935C161.285 105.935 161.284 105.935 161.284 105.935C159.871 101.057 155.343 98.7132 149.352 99.6621C141.733 100.869 137.167 106.213 136.864 114.03ZM134.928 115.09C134.98 114.123 134.899 113.178 134.762 112.309C133.82 106.366 128.919 102.898 122.201 103.962C114.68 105.154 109.796 110.445 109.534 117.88C109.482 118.846 109.563 119.792 109.7 120.66C110.652 126.67 115.576 130.066 122.261 129.007C129.816 127.81 134.622 122.463 134.928 115.09ZM143.973 112.925C144.122 109.396 146.191 106.557 149.538 106.027C150.391 105.892 151.254 105.88 152.052 106.147C152.65 106.347 153.159 106.687 153.572 107.156L160.1 106.122C159.509 104.2 158.377 102.787 156.863 101.879C155.043 100.789 152.55 100.359 149.538 100.836C145.967 101.402 143.188 102.921 141.264 105.145C139.337 107.372 138.195 110.39 138.052 114.076L138.052 114.078C138.021 114.854 138.07 115.554 138.185 116.285C138.978 121.288 143.3 124.471 149.06 123.559C152.776 122.97 155.724 121.248 157.699 118.741C159.465 116.5 160.501 113.569 160.559 110.124L149.906 111.811L149.83 113.751L152.977 113.252C153.422 113.182 153.868 113.369 154.13 113.735C154.392 114.101 154.424 114.584 154.214 114.982C153.24 116.822 151.557 118.006 149.4 118.348C148.074 118.558 146.82 118.315 145.828 117.574C144.841 116.836 144.25 115.706 144.042 114.399C143.973 113.963 143.936 113.472 143.973 112.925ZM160.372 107.245C160.372 107.246 160.372 107.248 160.373 107.249L160.373 107.249C160.372 107.248 160.372 107.246 160.372 107.245Z" fill="#FFF500"/>
<path id="Union (Stroke)_2" fill-rule="evenodd" clip-rule="evenodd" d="M29.8085 115.186C31.3756 113.412 32.2897 111.221 32.3879 108.965C32.4152 108.289 32.362 107.671 32.2722 107.104C31.6293 103.045 28.2451 101.165 22.9216 102.008L8.07516 104.36C7.8528 104.395 7.68622 104.582 7.67715 104.807L6.44577 135.363C6.43377 135.661 6.69719 135.895 6.99154 135.849L21.826 133.499C28.764 132.4 32.8848 128.482 33.0909 122.722C33.0952 122.185 33.0995 121.647 33.0166 121.124C32.7103 119.19 31.6531 117.647 30.0441 116.659C29.6917 116.443 29.3128 116.253 28.9096 116.092C29.2294 115.805 29.5293 115.502 29.8085 115.186ZM31.9022 122.696C31.9065 122.149 31.9066 121.715 31.8424 121.31C31.5386 119.392 30.3481 117.947 28.4683 117.196C28.0868 117.044 27.8111 116.705 27.7391 116.3C27.6672 115.896 27.8093 115.483 28.1148 115.208C30.0074 113.507 31.0986 111.232 31.2001 108.915C31.2235 108.333 31.178 107.795 31.098 107.29C30.8273 105.581 30.014 104.436 28.781 103.76C27.5003 103.059 25.6172 102.785 23.1076 103.182L8.84137 105.442L7.66883 134.538L21.64 132.325C24.9371 131.803 27.4567 130.627 29.1618 128.999C30.8465 127.39 31.8063 125.274 31.9022 122.696ZM45.447 112.217L45.4467 112.217L44.4628 112.373C44.352 112.391 44.2531 112.302 44.2582 112.19L44.2974 111.329V111.328L44.3034 111.195L44.3035 111.195L44.3617 109.915C44.3655 109.831 44.4278 109.761 44.5109 109.748L52.8269 108.431L53.0953 101.756L36.4592 104.391C36.1535 104.439 35.9244 104.697 35.9119 105.006L34.9494 128.94C34.933 129.35 35.2951 129.672 35.6999 129.608L52.2543 126.986L52.5356 120.165L45.0996 121.343L45.0994 121.343L44.9908 121.36L44.9907 121.36L44.1155 121.499C44.0051 121.516 43.9063 121.428 43.9108 121.317L44.0052 118.971C44.0085 118.887 44.071 118.817 44.1544 118.804L51.7007 117.608L51.9729 111.184L45.447 112.217ZM50.7236 112.585L44.6488 113.547C43.7946 113.683 43.0313 113 43.0706 112.136L43.174 109.861C43.2035 109.213 43.6844 108.675 44.3249 108.574L51.6782 107.409L51.8492 103.157L37.0821 105.496L36.1637 128.331L51.1066 125.964L51.2879 121.566L44.3015 122.673C43.4502 122.808 42.6883 122.13 42.723 121.269L42.8173 118.924C42.8435 118.273 43.3253 117.731 43.9684 117.629L50.5541 116.586L50.7236 112.585ZM16.6429 126.985C16.3768 126.749 16.2308 126.405 16.2451 126.049L16.4266 121.547C16.4494 120.98 16.8688 120.509 17.4285 120.42L19.8721 120.033C20.6694 119.907 21.4484 120.065 22.0677 120.552C22.6726 121.029 22.9976 121.718 23.1095 122.424C23.4372 124.494 22.2093 126.544 20.1062 126.877L17.619 127.271C17.2672 127.327 16.909 127.222 16.6429 126.985ZM17.049 115.424C16.783 115.188 16.6367 114.845 16.6503 114.489L16.8158 110.168C16.8375 109.601 17.2571 109.128 17.8178 109.04L19.9995 108.694C20.7663 108.573 21.5305 108.716 22.1453 109.191C22.7492 109.658 23.0743 110.341 23.1864 111.048C23.4904 112.968 22.3698 115.021 20.2497 115.357L18.0242 115.709C17.6729 115.765 17.3151 115.66 17.049 115.424ZM60.3357 125.706L69.5896 124.24L70.2792 106.671L75.3172 105.873C75.5958 105.829 75.8042 105.594 75.8147 105.312L76.0566 98.8322C76.0705 98.4607 75.7415 98.169 75.3743 98.2271L56.3089 101.247C56.0303 101.291 55.8219 101.526 55.8113 101.808L55.5695 108.287C55.5556 108.659 55.8845 108.951 56.2518 108.892L61.0602 108.131L60.3357 125.706ZM68.44 123.219L69.0913 106.624C69.1135 106.057 69.533 105.585 70.0932 105.497L74.6451 104.776L74.8414 99.5152L56.981 102.344L56.7846 107.604L60.8742 106.957C61.2261 106.901 61.5846 107.006 61.8507 107.243C62.1168 107.48 62.2627 107.824 62.248 108.18L61.5833 124.305L68.44 123.219ZM17.6145 121.594L20.0581 121.207C21.1053 121.042 21.7832 121.65 21.9353 122.61C22.1772 124.138 21.273 125.489 19.9202 125.703L17.433 126.097L17.6145 121.594ZM18.0037 110.214L20.1855 109.868C21.1891 109.709 21.8601 110.274 22.0122 111.234C22.2334 112.631 21.4164 113.968 20.0637 114.182L17.8383 114.535L18.0037 110.214Z" fill="#C4FFF9"/>
</g>
</g>
<defs>
<linearGradient id="paint0_linear_1041_119264" x1="82.5513" y1="17.382" x2="82.5513" y2="105.894" gradientUnits="userSpaceOnUse">
<stop stop-color="#51F7EB"/>
<stop offset="0.5" stop-color="#00A1A0"/>
</linearGradient>
<linearGradient id="paint1_linear_1041_119264" x1="84.3421" y1="1.54126" x2="84.3421" y2="104.205" gradientUnits="userSpaceOnUse">
<stop stop-color="#FFF500"/>
<stop offset="0.505" stop-color="#FFA800"/>
<stop offset="1" stop-color="#FF7900"/>
</linearGradient>
<linearGradient id="paint2_linear_1041_119264" x1="7.81854" y1="104.498" x2="11.4592" y2="135.285" gradientUnits="userSpaceOnUse">
<stop stop-color="#C8FFF9"/>
<stop offset="1" stop-color="#1DE4DC"/>
</linearGradient>
<linearGradient id="paint3_linear_1041_119264" x1="7.81854" y1="104.498" x2="11.4592" y2="135.285" gradientUnits="userSpaceOnUse">
<stop stop-color="#C8FFF9"/>
<stop offset="1" stop-color="#1DE4DC"/>
</linearGradient>
<linearGradient id="paint4_linear_1041_119264" x1="7.81854" y1="104.498" x2="11.4592" y2="135.285" gradientUnits="userSpaceOnUse">
<stop stop-color="#C8FFF9"/>
<stop offset="1" stop-color="#1DE4DC"/>
</linearGradient>
<linearGradient id="paint5_linear_1041_119264" x1="78.6503" y1="106.935" x2="77.2009" y2="137.762" gradientUnits="userSpaceOnUse">
<stop stop-color="#FFF500"/>
<stop offset="1" stop-color="#FF7900"/>
</linearGradient>
<linearGradient id="paint6_linear_1041_119264" x1="78.6503" y1="106.935" x2="77.2009" y2="137.762" gradientUnits="userSpaceOnUse">
<stop stop-color="#FFF500"/>
<stop offset="1" stop-color="#FF7900"/>
</linearGradient>
<linearGradient id="paint7_linear_1041_119264" x1="78.6503" y1="106.935" x2="77.2009" y2="137.762" gradientUnits="userSpaceOnUse">
<stop stop-color="#FFF500"/>
<stop offset="1" stop-color="#FF7900"/>
</linearGradient>
</defs>
</svg>
