<svg xmlns="http://www.w3.org/2000/svg" fill="none" viewBox="1.86 2.4806201550387597 34.72 35.348837209302324" style="max-height: 500px" width="34.72" height="35.348837209302324">
<path fill="#171B25" d="M49.5 13.7061L46.4 23.4744L43.325 13.7061H39.5L43.55 25.3151C43.975 26.5178 45.1 27.3031 46.4 27.3031C47.05 27.3031 47.65 27.1068 48.15 26.7632C48.65 26.4196 49.05 25.9042 49.25 25.3151L53.3 13.7061H49.5Z"/>
<path fill="#171B25" d="M66.2016 15.7187C64.8766 14.197 63.1016 13.4116 60.8266 13.4116C58.7266 13.4116 57.0016 14.0988 55.6266 15.4487C54.2516 16.7986 53.6016 18.4921 53.6016 20.5537C53.6016 22.5908 54.2766 24.2843 55.6266 25.6097C56.9766 26.935 58.7516 27.6222 60.8766 27.6222C62.4516 27.6222 63.8516 27.2295 65.0766 26.4687C66.3016 25.6833 67.1516 24.5298 67.6516 23.0081H63.9266C63.7016 23.548 63.3016 23.9653 62.7516 24.2598C62.2016 24.5543 61.5766 24.7261 60.8766 24.7261C59.9016 24.7261 59.0766 24.4561 58.4266 23.8916C57.7766 23.3271 57.3766 22.5172 57.2766 21.4618H67.9016C68.0766 19.1548 67.5266 17.2404 66.2016 15.7187ZM57.4516 18.8357C57.7016 18.0749 58.0766 17.4613 58.6516 17.0195C59.2266 16.5777 59.9266 16.3323 60.8016 16.3323C61.6516 16.3323 62.3516 16.5532 62.9266 17.0195C63.5016 17.4858 63.8766 18.0749 64.0766 18.8357H57.4516Z"/>
<path fill="#171B25" d="M77.7766 13.7061C75.7516 13.7061 74.3016 14.2952 73.4516 16.0868V13.7061H69.8516V27.3031H73.4516V21.2409C73.4516 19.7438 73.8516 18.6639 74.6266 18.0012C75.4016 17.3631 76.4266 17.0686 77.7016 17.0686H78.5766V13.7061H77.7766Z"/>
<path fill="#171B25" d="M90.2234 13.7061L86.7734 21.6581L83.3484 13.7061H79.5234L84.8734 25.4869L82.1484 31.5H85.9734L94.0984 13.6815H90.2234V13.7061Z"/>
<path fill="#171B25" d="M103.199 23.7689C102.624 24.1371 101.924 24.3334 101.149 24.3334C100.099 24.3334 99.2242 23.9898 98.5742 23.2781C97.8992 22.5663 97.5742 21.6337 97.5992 20.5047C97.5742 19.3757 97.8992 18.443 98.5492 17.7313C99.1992 17.0195 100.074 16.6759 101.174 16.6759C101.949 16.6759 102.624 16.8722 103.199 17.2404C103.774 17.6085 104.174 18.173 104.374 18.8603H108.074C107.824 17.1913 107.049 15.8414 105.749 14.8597C104.449 13.878 102.924 13.3871 101.174 13.3871C99.0992 13.3871 97.3742 14.0743 95.9992 15.4242C94.6242 16.7741 93.9492 18.4676 93.9492 20.4801C93.9492 22.5172 94.6242 24.1862 95.9992 25.5606C97.3742 26.9105 99.0742 27.5732 101.149 27.5732C102.899 27.5732 104.424 27.0823 105.724 26.1251C107.024 25.1679 107.824 23.818 108.074 22.0754H104.374C104.174 22.8363 103.774 23.4008 103.199 23.7689Z"/>
<path fill="#171B25" d="M121.55 14.8351C120.65 13.8779 119.45 13.4116 117.9 13.4116C116.075 13.4116 114.625 14.1233 113.6 15.5714V10.0001H110V27.3031H113.6V20.161C113.6 17.903 114.625 16.774 116.7 16.774C117.625 16.774 118.275 16.9949 118.7 17.4612C119.1 17.9276 119.3 18.6148 119.3 19.5474V27.3031H122.9V18.7866C122.9 17.1176 122.45 15.8168 121.55 14.8351Z"/>
<path fill="#171B25" d="M135.476 13.7061V15.6205C134.401 14.1479 132.951 13.4116 131.101 13.4116C129.301 13.4116 127.801 14.0743 126.601 15.3996C125.401 16.725 124.801 18.4185 124.801 20.5047C124.801 22.5908 125.401 24.2843 126.601 25.6097C127.801 26.935 129.301 27.5977 131.126 27.5977C132.951 27.5977 134.401 26.8859 135.451 25.4624V27.3032H139.051L139.076 13.7061H135.476ZM134.476 23.2044C133.801 23.8916 132.951 24.2353 131.926 24.2353C130.926 24.2353 130.076 23.8916 129.426 23.2044C128.751 22.5172 128.426 21.6091 128.426 20.5047C128.426 19.4002 128.751 18.5166 129.401 17.8049C130.051 17.1177 130.901 16.7741 131.926 16.7741C132.951 16.7741 133.801 17.1177 134.476 17.8049C135.151 18.4921 135.476 19.4002 135.476 20.5047C135.476 21.6091 135.151 22.5172 134.476 23.2044Z"/>
<path fill="#171B25" d="M144.801 13.7061V10.0001H141.201V17.044H149.951V13.7061H144.801ZM149.901 23.6462C148.626 24.088 147.651 24.3089 147.001 24.3089C145.526 24.3089 144.776 23.4989 144.776 21.8545V18.6393L141.176 17.0686V22.0999C141.176 23.9407 141.676 25.3397 142.651 26.2478C143.626 27.1559 144.876 27.6222 146.376 27.6222C147.151 27.6222 147.926 27.4995 148.701 27.3031C149.476 27.0823 150.076 26.8368 150.501 26.5423L149.901 23.6462Z"/>
<path fill="url(#paint0_linear_2040_9996)" d="M34.2158 22.3606L33.7508 21.2365C33.415 20.4372 33.415 19.5379 33.7508 18.7636L34.2158 17.6395C34.8358 16.1907 34.2675 14.4922 32.9241 13.6928L32.6658 13.5429L31.6841 12.9684C31.0641 12.5937 30.5991 12.0442 30.3666 11.3698C30.3149 11.2698 30.2891 11.1699 30.2632 11.045L29.9016 9.67117C29.5141 8.22238 28.1707 7.22321 26.6723 7.32313L24.9156 7.44802C24.1406 7.49798 23.3914 7.24819 22.7714 6.77358L21.4022 5.6745C20.8597 5.22487 20.1622 5.00006 19.4905 5.00006C18.8188 5.00006 18.1213 5.22487 17.5529 5.6745L16.1837 6.77358C15.5637 7.27317 14.8146 7.49798 14.0395 7.44802L12.2828 7.32313C10.7845 7.22321 9.44109 8.1974 9.05358 9.67117L8.69191 11.045C8.48524 11.8444 7.96856 12.5188 7.27104 12.9434L6.03102 13.6678C4.68765 14.4672 4.14514 16.1658 4.73932 17.6145L5.20433 18.7386C5.54017 19.5379 5.54017 20.4372 5.20433 21.2115L4.76515 22.3606C4.14514 23.8344 4.68765 25.508 6.05685 26.3073L7.29688 27.0567C7.99439 27.4813 8.51107 28.1558 8.71774 28.9551L9.07942 30.329C9.46693 31.7777 10.8103 32.7769 12.3087 32.677L14.0654 32.5521C14.8404 32.5021 15.6154 32.7519 16.2096 33.2265L17.5788 34.3256C18.7155 35.2249 20.3172 35.2249 21.4539 34.3256L22.1256 33.7761C23.0039 33.0767 23.9598 32.9767 25.1998 33.3015L30.4957 34.9751C30.5216 34.9751 30.5732 34.9751 30.5732 34.9251V29.4047C30.5732 28.5055 31.0383 27.6562 31.7874 27.1316L32.6141 26.5571C32.7175 26.4822 32.8466 26.3822 32.95 26.3073C32.9758 26.2823 33.0016 26.2573 33.0533 26.2573L33.2083 26.1574C34.035 25.5579 34.5 24.5837 34.5 23.6096C34.4483 23.1599 34.3708 22.7603 34.2158 22.3606ZM22.4356 25.9576C22.2289 26.5571 21.8155 27.0817 21.2989 27.4314C20.7822 27.7811 20.1622 27.9809 19.4905 27.9809C18.1471 27.9809 16.9846 27.1566 16.5454 25.9576L12.3345 14.1424H16.2871L19.4647 24.0842L22.6681 14.1424H26.6207L22.4356 25.9576Z"/>
<defs>
<linearGradient gradientUnits="userSpaceOnUse" y2="35.0001" x2="32.1563" y1="20.0001" x1="19.5" id="paint0_linear_2040_9996">
<stop stop-color="#FF6D75"/>
<stop stop-color="#9C86FF" offset="1"/>
</linearGradient>
</defs>
</svg>