<svg width="122" height="62" viewBox="0 0 122 62" fill="none" xmlns="http://www.w3.org/2000/svg">
<path d="M33.722 60.4861C49.9531 60.4861 63.1111 47.3281 63.1111 31.097C63.1111 14.8659 49.9531 1.70801 33.722 1.70801C17.4909 1.70801 4.33301 14.8659 4.33301 31.097C4.33301 47.3281 17.4909 60.4861 33.722 60.4861Z" fill="#1C2334"/>
<path d="M33.7227 61.5954C16.9043 61.5954 3.22266 47.9138 3.22266 31.0954C3.22266 14.2771 16.9062 0.59729 33.7227 0.59729C50.5391 0.59729 64.2227 14.279 64.2227 31.0973C64.2227 47.9156 50.541 61.5973 33.7227 61.5973V61.5954ZM33.7227 2.81924C18.1301 2.81924 5.44461 15.5047 5.44461 31.0973C5.44461 46.6898 18.1301 59.3753 33.7227 59.3753C49.3152 59.3753 62.0007 46.6898 62.0007 31.0973C62.0007 15.5047 49.3152 2.81924 33.7227 2.81924Z" fill="#FF7901"/>
<path d="M33.9707 59.9603C49.9115 59.9603 62.8341 47.0377 62.8341 31.097C62.8341 15.1562 49.9115 2.23364 33.9707 2.23364C18.03 2.23364 5.10742 15.1562 5.10742 31.097C5.10742 47.0377 18.03 59.9603 33.9707 59.9603Z" fill="#1C2334"/>
<path d="M33.9707 61.5954C17.1531 61.5954 3.4707 47.913 3.4707 31.0955C3.4707 14.2779 17.1531 0.59729 33.9707 0.59729C50.7882 0.59729 64.4707 14.2797 64.4707 31.0973C64.4707 47.9148 50.7882 61.5973 33.9707 61.5973V61.5954ZM33.9707 3.8706C18.9589 3.8706 6.74401 16.0837 6.74401 31.0973C6.74401 46.1109 18.9571 58.3239 33.9707 58.3239C48.9843 58.3239 61.1974 46.1109 61.1974 31.0973C61.1974 16.0837 48.9825 3.8706 33.9707 3.8706Z" fill="#FF7901"/>
<path d="M67.9079 9.53943H58.5898V10.6324H67.9079V9.53943Z" fill="url(#paint0_linear_9114_160364)"/>
<path d="M62.0855 34.5916H44.0986V35.6845H62.0855V34.5916Z" fill="url(#paint1_linear_9114_160364)"/>
<path d="M22.9423 35.6848L10.1709 52.4242H20.3254L32.0821 36.494L37.1884 52.4242H47.0157L40.8527 35.6848H22.9423Z" fill="#FF7901"/>
<path d="M25.0737 35.6859H42.6314L40.9529 31.0651L57.1321 9.54126H46.9176L36.1411 24.9204L31.6003 9.54126H22.0986L29.1653 30.2613L25.0755 35.6877L25.0737 35.6859Z" fill="#FF7901"/>
<path d="M28.2291 35.6859H45.7868L44.1083 31.0651L60.2894 9.54126H50.0748L39.2984 24.9204L34.7576 9.54126H25.2559L32.3226 30.2613L28.2328 35.6877L28.2291 35.6859Z" fill="#00C6FF"/>
<path d="M25.7828 35.6848L13.0078 52.4242H23.1623L34.919 36.494L40.0254 52.4242H49.8526L43.6933 35.6848H25.7828Z" fill="#00C6FF"/>
<path d="M24.2057 35.6848L11.4307 52.4242H21.5852L33.3418 36.494L38.4482 52.4242H48.2754L42.1161 35.6848H24.2057Z" fill="white"/>
<path d="M26.3354 35.6859H43.8931L42.211 31.0651L58.3939 9.54126H48.1793L37.4029 24.9204L32.862 9.54126H23.3604L30.4271 30.2613L26.3372 35.6877L26.3354 35.6859Z" fill="white"/>
<path d="M23.3725 35.6848H10.6211V36.7777H23.3725V35.6848Z" fill="url(#paint2_linear_9114_160364)"/>
<path d="M22.9846 9.53943H4.07031V10.6051H22.9846V9.53943Z" fill="url(#paint3_linear_9114_160364)"/>
<path d="M11.1461 51.3285H0.244141V52.4214H11.1461V51.3285Z" fill="url(#paint4_linear_9114_160364)"/>
<path d="M13.356 48.7426H5.1709V49.8355H13.356V48.7426Z" fill="url(#paint5_linear_9114_160364)"/>
<path d="M104.955 25.1866C103.728 24.872 102.393 24.7156 100.954 24.7156C99.516 24.7156 98.1885 24.9229 97.012 25.3411C95.8354 25.7594 94.8243 26.3504 93.9841 27.1196C93.144 27.8889 92.4984 28.7908 92.0474 29.831C91.5965 30.8676 91.3691 32.0151 91.3691 33.2716C91.3691 34.5282 91.6037 35.6721 92.0747 36.6268C92.5457 37.5815 93.1458 38.418 93.8805 39.1345C94.6115 39.8546 95.3662 40.4911 96.1445 41.0567C96.37 41.224 96.5864 41.3858 96.7937 41.544H104.748C104.417 40.7712 103.962 40.0456 103.375 39.3727C102.695 38.5962 101.838 37.8706 100.805 37.1923C100.08 36.705 99.4597 36.2595 98.9414 35.8576C98.4268 35.4557 98.0321 35.0156 97.7575 34.541C97.4848 34.0663 97.3466 33.4971 97.3466 32.8316C97.3466 32.3442 97.4357 31.9078 97.6139 31.5241C97.7921 31.1404 98.0431 30.8112 98.3668 30.5348C98.6904 30.2584 99.0723 30.0474 99.5124 29.9001C99.9507 29.7528 100.431 29.6801 100.953 29.6801C101.831 29.6801 102.718 29.8001 103.617 30.0347C104.513 30.2729 105.457 30.6294 106.454 31.1022L108.536 26.6214C107.379 25.9813 106.183 25.503 104.955 25.1884L104.952 25.1848L104.955 25.1866Z" fill="#FF7901"/>
<path d="M53.8603 42.474L51.6562 52.6904H57.4446L59.645 42.474H53.8603Z" fill="#FF7901"/>
<path d="M56.6832 41.7189H48.2744V42.4754H56.6832V41.7189Z" fill="url(#paint6_linear_9114_160364)"/>
<path d="M72.5473 41.7189H64.2949V42.4754H72.5473V41.7189Z" fill="url(#paint7_linear_9114_160364)"/>
<path d="M96.0516 41.5385H89.3613V42.2949H96.0516V41.5385Z" fill="url(#paint8_linear_9114_160364)"/>
<path d="M121.692 40.4609H106.091V41.5539H121.692V40.4609Z" fill="url(#paint9_linear_9114_160364)"/>
<path d="M121.755 29.9996H109.069V31.0962H121.755V29.9996Z" fill="url(#paint10_linear_9114_160364)"/>
<path d="M56.1336 42.4747H61.9183L61.9256 42.4565L73.724 25.1097H67.1956L60.0525 36.4827L57.5884 25.1097H51.6328L56.1391 42.4565L56.1354 42.4747H56.1336Z" fill="#FF7901"/>
<path d="M58.6569 42.4747H64.4452L64.4489 42.4565L76.251 25.1097H69.7189L62.5758 36.4827L60.1135 25.1097H54.1543L58.6606 42.4565L58.6569 42.4747Z" fill="#00C6FF"/>
<path d="M57.0781 42.4747H62.8664L62.87 42.4565L74.6703 25.1097H68.1382L60.9988 36.4827L58.5347 25.1097H52.5791L57.0854 42.4565L57.0781 42.4747Z" fill="white"/>
<path d="M105.919 41.5387H98.2392C98.4847 41.7278 98.7139 41.9096 98.9285 42.0878C99.4304 42.5025 99.825 42.9516 100.112 43.4354C100.398 43.9191 100.541 44.5192 100.541 45.2357C100.541 45.7376 100.427 46.1777 100.198 46.5559C99.9687 46.9323 99.6504 47.2469 99.2431 47.4979C98.8357 47.7489 98.3556 47.9343 97.8028 48.0544C97.25 48.1744 96.6481 48.2326 96.0007 48.2326C94.8296 48.2326 93.6857 48.0544 92.5728 47.6961C91.4599 47.3379 90.3215 46.8378 89.1631 46.1977V51.3659C89.965 51.8932 90.947 52.3079 92.1145 52.6097C93.2784 52.9116 94.5622 53.0625 95.9625 53.0625C97.3627 53.0625 98.7539 52.8898 100.02 52.5443C101.285 52.1987 102.402 51.6732 103.362 50.9694C104.322 50.2657 105.077 49.3801 105.626 48.309C106.173 47.2415 106.446 45.9813 106.446 44.5356C106.446 43.4554 106.277 42.4679 105.941 41.5732C105.933 41.5605 105.928 41.5478 105.924 41.5332L105.917 41.5387H105.919Z" fill="#00C6FF"/>
<path d="M69.0961 42.474H60.5928V43.2305H69.0961V42.474Z" fill="url(#paint11_linear_9114_160364)"/>
<path d="M74.8406 42.474H69.0141L66.8301 52.6904H82.431L83.4621 47.8622H73.684L74.8424 42.474H74.8406Z" fill="#FF7901"/>
<path d="M77.3639 42.474H71.5356L69.3516 52.6904H84.9525L85.9836 47.8622H76.2073L77.3657 42.474H77.3639Z" fill="#00C6FF"/>
<path d="M89.5249 29.9906L90.556 25.1116H74.935L71.2871 42.4765H77.1154L77.4173 41.038H86.5244L87.5773 36.159H78.4666L79.7486 29.9924H89.5249V29.9906Z" fill="#FF7901"/>
<path d="M75.7866 42.474H69.9601L67.7725 52.6904H83.3734L84.4045 47.8622H74.6282L75.7866 42.474Z" fill="white"/>
<path d="M92.3647 29.9906L93.3958 25.1116H77.7749L74.127 42.4765H79.9534L80.259 41.038H89.366L90.4153 36.159H81.3082L82.5866 29.9924H92.3647V29.9906Z" fill="#00C6FF"/>
<path d="M102.763 41.5387H95.0838C95.3293 41.7278 95.5585 41.9096 95.7731 42.0878C96.275 42.5025 96.6696 42.9516 96.9569 43.4354C97.2424 43.9191 97.3861 44.5192 97.3861 45.2357C97.3861 45.7376 97.2715 46.1777 97.0424 46.5559C96.8132 46.9323 96.495 47.2469 96.0877 47.4979C95.6803 47.7489 95.2002 47.9343 94.6474 48.0544C94.0946 48.1744 93.4926 48.2326 92.8434 48.2326C91.6723 48.2326 90.5285 48.0544 89.4156 47.6961C88.3026 47.3379 87.1642 46.8378 86.0059 46.1977V51.3659C86.8078 51.8932 87.7898 52.3079 88.9573 52.6097C90.1211 52.9116 91.4068 53.0625 92.8052 53.0625C94.2037 53.0625 95.5967 52.8898 96.8623 52.5443C98.128 52.1987 99.2446 51.6732 100.205 50.9694C101.165 50.2657 101.92 49.3801 102.469 48.309C103.016 47.2415 103.289 45.9813 103.289 44.5356C103.289 43.4554 103.12 42.4679 102.783 41.5732C102.776 41.5605 102.771 41.5478 102.767 41.5332L102.762 41.5387H102.763Z" fill="#FF7901"/>
<path d="M90.7886 29.9906L91.8197 25.1116H76.1987L72.5508 42.4765H78.3773L78.6828 41.038H87.7899L88.8391 36.159H79.7321L81.0105 29.9924H90.7886V29.9906Z" fill="white"/>
<path d="M107.568 25.1866C106.341 24.872 105.006 24.7156 103.568 24.7156C102.129 24.7156 100.802 24.9229 99.6253 25.3411C98.4487 25.7594 97.4376 26.3504 96.5974 27.1196C95.7573 27.8889 95.1117 28.7908 94.6607 29.831C94.2097 30.8676 93.9824 32.0151 93.9824 33.2716C93.9824 34.5282 94.217 35.6721 94.688 36.6268C95.159 37.5815 95.7591 38.418 96.4938 39.1345C97.2248 39.8546 97.9795 40.4911 98.7578 41.0567C98.9833 41.224 99.1997 41.3858 99.407 41.544H107.361C107.03 40.7712 106.576 40.0456 105.988 39.3727C105.308 38.5962 104.452 37.8706 103.419 37.1923C102.693 36.705 102.073 36.2595 101.555 35.8576C101.04 35.4557 100.645 35.0156 100.371 34.541C100.098 34.0663 99.9599 33.4971 99.9599 32.8316C99.9599 32.3442 100.049 31.9078 100.227 31.5241C100.405 31.1404 100.656 30.8112 100.98 30.5348C101.304 30.2584 101.686 30.0474 102.126 29.9001C102.564 29.7528 103.044 29.6801 103.566 29.6801C104.444 29.6801 105.332 29.8001 106.23 30.0347C107.127 30.2729 108.07 30.6294 109.067 31.1022L111.149 26.6214C109.993 25.9813 108.796 25.503 107.568 25.1884L107.565 25.1848L107.568 25.1866Z" fill="#00C6FF"/>
<path d="M103.711 41.5387H96.0312C96.2767 41.7278 96.5059 41.9096 96.7205 42.0878C97.2224 42.5025 97.617 42.9516 97.9043 43.4354C98.1898 43.9191 98.3335 44.5192 98.3335 45.2357C98.3335 45.7376 98.2189 46.1777 97.9898 46.5559C97.7606 46.9323 97.4424 47.2469 97.0351 47.4979C96.6277 47.7489 96.1476 47.9343 95.5948 48.0544C95.042 48.1744 94.44 48.2326 93.7927 48.2326C92.6215 48.2326 91.4777 48.0544 90.3648 47.6961C89.2519 47.3379 88.1135 46.8378 86.9551 46.1977V51.3659C87.757 51.8932 88.739 52.3079 89.9065 52.6097C91.0704 52.9116 92.3542 53.0625 93.7545 53.0625C95.1547 53.0625 96.5459 52.8898 97.8116 52.5443C99.0772 52.1987 100.194 51.6732 101.154 50.9694C102.114 50.2657 102.869 49.3801 103.418 48.309C103.965 47.2415 104.238 45.9813 104.238 44.5356C104.238 43.4554 104.069 42.4679 103.733 41.5732C103.725 41.5605 103.72 41.5478 103.716 41.5332L103.709 41.5387H103.711Z" fill="white"/>
<path d="M105.99 25.1866C104.763 24.872 103.428 24.7156 101.99 24.7156C100.551 24.7156 99.2238 24.9229 98.0473 25.3411C96.8707 25.7594 95.8596 26.3504 95.0194 27.1196C94.1793 27.8889 93.5337 28.7908 93.0827 29.831C92.6317 30.8676 92.4062 32.0151 92.4062 33.2716C92.4062 34.5282 92.6408 35.6721 93.1118 36.6268C93.5828 37.5815 94.1829 38.418 94.9176 39.1345C95.6486 39.8546 96.4033 40.4911 97.1816 41.0567C97.4071 41.224 97.6235 41.3858 97.8309 41.544H105.785C105.454 40.7712 104.999 40.0456 104.412 39.3727C103.732 38.5962 102.875 37.8706 101.842 37.1923C101.117 36.705 100.497 36.2595 99.9785 35.8576C99.4639 35.4557 99.0693 35.0156 98.7947 34.541C98.5219 34.0663 98.3837 33.4971 98.3837 32.8316C98.3837 32.3442 98.4728 31.9078 98.651 31.5241C98.8292 31.1404 99.0802 30.8112 99.4039 30.5348C99.7276 30.2584 100.109 30.0474 100.55 29.9001C100.988 29.7528 101.468 29.6801 101.99 29.6801C102.868 29.6801 103.756 29.8001 104.654 30.0347C105.55 30.2729 106.496 30.6294 107.491 31.1022L109.573 26.6214C108.415 25.9813 107.22 25.503 105.992 25.1884L105.989 25.1848L105.99 25.1866Z" fill="white"/>
<path d="M89.3147 42.474H75.7705V43.2305H89.3147V42.474Z" fill="url(#paint12_linear_9114_160364)"/>
<path d="M56.0673 42.474L53.8633 52.6904H59.6516L61.852 42.474H56.0673Z" fill="#00C6FF"/>
<path d="M54.8059 42.474L52.6055 52.6904H58.3901L60.5942 42.474H54.8059Z" fill="white"/>
<defs>
<linearGradient id="paint0_linear_9114_160364" x1="58.5826" y1="10.0104" x2="68.7244" y2="10.1741" gradientUnits="userSpaceOnUse">
<stop stop-color="#00C6FF"/>
<stop offset="1" stop-color="white" stop-opacity="0"/>
</linearGradient>
<linearGradient id="paint1_linear_9114_160364" x1="44.1005" y1="35.1389" x2="62.0855" y2="35.1389" gradientUnits="userSpaceOnUse">
<stop stop-color="#00C6FF"/>
<stop offset="1" stop-color="white" stop-opacity="0"/>
</linearGradient>
<linearGradient id="paint2_linear_9114_160364" x1="10.6211" y1="36.2322" x2="23.3725" y2="36.2322" gradientUnits="userSpaceOnUse">
<stop stop-color="white" stop-opacity="0"/>
<stop offset="1" stop-color="#FF7901"/>
</linearGradient>
<linearGradient id="paint3_linear_9114_160364" x1="4.07031" y1="10.0723" x2="22.9846" y2="10.0723" gradientUnits="userSpaceOnUse">
<stop stop-color="white" stop-opacity="0"/>
<stop offset="1" stop-color="#FF7901"/>
</linearGradient>
<linearGradient id="paint4_linear_9114_160364" x1="0.244141" y1="51.8759" x2="11.1461" y2="51.8759" gradientUnits="userSpaceOnUse">
<stop stop-color="white" stop-opacity="0"/>
<stop offset="1" stop-color="#FF7901"/>
</linearGradient>
<linearGradient id="paint5_linear_9114_160364" x1="5.1709" y1="49.2899" x2="13.356" y2="49.2899" gradientUnits="userSpaceOnUse">
<stop stop-color="white" stop-opacity="0"/>
<stop offset="1" stop-color="#FF7901"/>
</linearGradient>
<linearGradient id="paint6_linear_9114_160364" x1="48.2762" y1="42.0971" x2="56.6832" y2="42.0971" gradientUnits="userSpaceOnUse">
<stop stop-color="white" stop-opacity="0"/>
<stop offset="1" stop-color="#FF7901"/>
</linearGradient>
<linearGradient id="paint7_linear_9114_160364" x1="64.2949" y1="42.0971" x2="72.5473" y2="42.0971" gradientUnits="userSpaceOnUse">
<stop stop-color="white" stop-opacity="0"/>
<stop offset="1" stop-color="#FF7901"/>
</linearGradient>
<linearGradient id="paint8_linear_9114_160364" x1="89.3613" y1="41.9185" x2="96.0516" y2="41.9185" gradientUnits="userSpaceOnUse">
<stop stop-color="white" stop-opacity="0"/>
<stop offset="1" stop-color="#FF7901"/>
</linearGradient>
<linearGradient id="paint9_linear_9114_160364" x1="106.089" y1="41.0083" x2="121.692" y2="41.0083" gradientUnits="userSpaceOnUse">
<stop stop-color="#00C6FF"/>
<stop offset="1" stop-color="white" stop-opacity="0"/>
</linearGradient>
<linearGradient id="paint10_linear_9114_160364" x1="109.069" y1="30.547" x2="121.755" y2="30.547" gradientUnits="userSpaceOnUse">
<stop stop-color="#00C6FF"/>
<stop offset="1" stop-color="white" stop-opacity="0"/>
</linearGradient>
<linearGradient id="paint11_linear_9114_160364" x1="60.5928" y1="42.8541" x2="69.0961" y2="42.8541" gradientUnits="userSpaceOnUse">
<stop stop-color="#00C6FF"/>
<stop offset="1" stop-color="white" stop-opacity="0"/>
</linearGradient>
<linearGradient id="paint12_linear_9114_160364" x1="75.7705" y1="42.8541" x2="89.3147" y2="42.8541" gradientUnits="userSpaceOnUse">
<stop stop-color="#00C6FF"/>
<stop offset="1" stop-color="white" stop-opacity="0"/>
</linearGradient>
</defs>
<script xmlns=""/></svg>